<svg xmlns="http://www.w3.org/2000/svg" viewBox="0 0 164.5 164.5"><defs><style>.cls-1{fill:#009ef2;}.cls-2{fill:#f2f4ed;}</style></defs><g id="Layer_2" data-name="Layer 2"><g id="Object"><circle class="cls-1" cx="82.25" cy="82.25" r="82.25" transform="translate(-12.11 150.27) rotate(-80.78)"/><path class="cls-2" d="M152.66,54c-.68-.83-.77-3.52-2.39-2,.12-1.36-.43-4.58,2-4.28,2.62.33,1.42,3.17,2,4.63.72,1.71,3.1,1.85,4.47,2.82a8.56,8.56,0,0,1,2,2.42A82,82,0,0,0,144.07,28a1.5,1.5,0,0,1,0,.2c-1.74-.12-3.3,2.2-3,3.65.05.25.76.67.85,1.2s-.37.76-.39,1.17c0,1-.29,1.88,1,2.14.84-1.6,2.72.3,3.11,1.37.67,1.86-.15,2.8,1.18,4.32.51.58,2,1.3,1.73,2.34s-1.08.83-1.83.54c-1.22-.46-1.87-2.29-3.3-2.35-.95,2.38-.06,5.45-.81,8-.42,1.41-.93,1.46.28,2.51.44.37.74-.05,1.25.56a2.56,2.56,0,0,1,.28,1.57c.67-.4,1.26-1,2.13-.94-1.29,1.1-1.09,3.18-2,4.59-1.12,1.76-2.05,1.17-3.59,1.88-2.69,1.24-1.3,3.65-1.59,5.65-.16,1.17-1.13,2.15-1.58,3.27a13.68,13.68,0,0,0-1.09,4.95,27.75,27.75,0,0,0,1,5.78c.31,1.58.32,4.6,1.86,5.51.94.55,3.92.44,5.18.63s2.74-.47,3.8.07.91,2.21,2.27,1.83c.76-.22,1.2-2,2.16-2.35,1.53-.53,2.74.87,3.16,2.07.54,1.54-.26,1.59-.67,3.22a6.8,6.8,0,0,0,.41,3.86c.86,2.44-.09,1.37-1,3.64a6.55,6.55,0,0,0,2,.22,12.13,12.13,0,0,1,0,3c-.56,2.39-2.87,3.7-3,6.47-.12,2.54,1,5.59.57,8.07-.36,1.82-2.41,3-2.07,5.1,1.15-.74,2-1.9,3.28-2.52a82.26,82.26,0,0,0,5.9-58.61,11.53,11.53,0,0,1-3.74-2.72C156.46,56.37,154,55.57,152.66,54Z"/><path class="cls-2" d="M93.16,2.35c1,.18,2.15.17,3.15.41s1.94,1.05,3.16.56a3.34,3.34,0,0,0,1.39-1.18A82.69,82.69,0,0,0,82.25,0,81.86,81.86,0,0,0,41,11.09c3.15.2,2.44,3.73,5.15.82a32.9,32.9,0,0,1,4.08-4.2C52,6.43,54,7.29,56,7.24c-.69.5-4.55,3.27-4.12,4.19.58,1.25,2.73-.27,1.89,2.15-.75,2.15-3.81.68-5.71.83-1.47.11-2.28,1.1-3.87,1.17s-3.34-.38-5-.34c-2.59.08-4.25,1.57-5.83,3.39a17.28,17.28,0,0,0-2.67,3.12c-.73,1.39-.44,3.21-1.12,4.47-.59,1.07-1.93,1.25-2.88,1.89a19.93,19.93,0,0,0-3.46,3.16c-1.55,1.79-2.23,5.2-4.87,5.85-.37,2.77,3.83-1.09,5.08-.54.63-.84.88-2,1.83-2.6s2.28-.52,3.37-1.21c2.07-1.32,1.4-4.21,4-4.69,2.08-.4,4.4-.8,4.91,1.48.25,1.13-.19,1-.22,2.12,0,1.47-.17.57.93,1.47,1.65,1.36,1.93,3,.63,4.91-.62.91-1,.79-1.34,2a10.62,10.62,0,0,0-.2,3.68c0,1.38-.09,2.72-.14,4.09-.07,2.3.48,3.15,2.3,4.6,1.38,1.1,2.85,1.91,3.56,3.63.62,1.49.5,3.27.9,4.8s4.41,4.94,4,2.09c-.23-1.47-1.9-1.8-1.89-3.59,0-.72.29-1.79.37-2.56,2.28-.62,1.68,3.27,2.29,4.43.87,1.65,3.14,2.71,4.33,4-1.1.51-2.95,1.59-2.34,3.11.77,1.93,3.23.58,4.59.61,3,.08,5.89,2,8.31,3.63s3.22,2.41,6.11,2.19a9.09,9.09,0,0,1,5.23,1,5.56,5.56,0,0,1,2.73,2.68A8.42,8.42,0,0,0,80.58,82c1,.78,1.54,1.62,2.66,1.56.77,0,1.33-1.16,2.5-.79,2.23.69,1.58,3.52.85,4.82-.62,1.1-1.19,2.51-1.88,3.6-.87,1.38-3.15,1.89-3.42,3.72s1.68,3.72,2.11,5.36a19,19,0,0,1,.35,4.64c-1,1.4,4.87,6.36,6,7.31,1.59,1.39,3.92,3.23,4.53,5.35a19.25,19.25,0,0,1,.2,3.15,43.69,43.69,0,0,1,.14,5.84c-.13,2.84-2.17,4.57-2.66,7.26-.38,2.16.39,4.43.06,6.56-.15,1-.34,2.32-.58,3.27s-.7.93-1.08,1.59c-.68,1.2-.34,2.37.24,3.66,1.81-1.3,3.31,1.16,4.16,2.4a4.17,4.17,0,0,0,4.53,1.91c-.87-.71-2.33-3-2-4.31.44-1.88,3.15-3.4,4.07-5s.7-3.28,2.74-4c.57-.21,1.24-.1,1.81-.34s1.09-1,1.78-1.29c1.9-.9,2.33-.66,3.12-2.76,1-2.56,1.77-5.79,4.2-7.41,1-.63,2-.59,3-1s1.49-1.27,2.42-1.92a18.82,18.82,0,0,0,3.68-3.29,27.93,27.93,0,0,0,3.28-4.9,10.89,10.89,0,0,1,1.8-3c.39-.37,1-.53,1.42-1,1.66-1.66,2.29-4.32,3.73-6.14a10.36,10.36,0,0,0,2.07-2.8,5.69,5.69,0,0,0-.66-1.12c-.35-.64-1.21-1.23-1.64-1.89-.15-.23-.2-.94-.35-1.1-1.19-1.28-4.09-2-5.7-2-2.21-.09-5.51-.42-6.95-2.42-1.08-1.48.76-3.59.06-5.17-.88-2-5.48-2.93-7.24-4-1.21-.74-2-1.86-3.24-2.62-1.76-1.1-2.82-1.55-3.57-3.49-.45-1.17.24-1.37-1.17-1.81s-3.36.74-4.83.85a9.59,9.59,0,0,1-3.38,0c-1.29-.39-2.25-1.86-3.6-2.12a8.4,8.4,0,0,0-4.72,1.08c-.94.62-1.45,1.73-2.49,2.21-1.49.69-1.39-.22-2.84-.34s-2.2.66-3.31-1c-1.5-2.23-.89-6.79-4.43-7-1.06-.06-3.08.82-3.73-.53-1-2,2.48-4.63,2-6.78s-4.69.71-5.64,1.94c-.6.79-1.07,2.73-2.34,2.87-.94.1-2.9-1.15-3.48-1.85-1-1.21-1.07-3.57-1.21-5.11-.27-2.89.39-3.78,2.4-5.93,1.78-1.9,2.15-2.07,4.42-2.46,1.4-.25,1.39-.74,2.57-.12.57.29.92,1.18,1.61,1.46a2.8,2.8,0,0,1,2.92-1,6.72,6.72,0,0,1,3.39,2.14c.32.53.8,5.32,2.53,2.38-1-.83-.74-1.8-1.14-2.72s-1.34-1.58-1.52-2.73c-.2-1.34,1-4.12,2.49-4.41l-.17-1.5c1.69-.24,3.69-4.33,3.35-6.34-.17-1-1.27-.92-.68-2.37.68-1.69,1.85-.81,3.29-1.12s1.22-1.25,2.24-2,1.64-.2,2.59-.15c1.78.07,4.11.47,4.24-2,1.08-.15,2-.49,3.11,0a4.3,4.3,0,0,0-1.93-4.43c-1.46-1-3.37-1.27-4.87-2.23-1-.61-1.66-1.51-2.57-2.16a46.38,46.38,0,0,1-3.84-3.42c-1.7-1.52-3.34.4-5.6.09-3-.42-2.8-2.68-4.65-4-.21-.16-.83.05-1.1-.09a8.07,8.07,0,0,1-1.32-1.24,6.87,6.87,0,0,1-1.93-4c3.3-1.9,4.13,2.62,5.51,4.27.63.74,3.08,1.21,1.16,2.38a24.22,24.22,0,0,1,3.75.19,9.85,9.85,0,0,0,1.73.5,9.3,9.3,0,0,0-.44-3,6.16,6.16,0,0,0-.15-1.36c-.28-.64-1-1-1.21-1.48-.73-1.53.19-1.53-1.48-2.45-1.14-.63-2.52-1.08-3.7-1.61a7.47,7.47,0,0,1-2.31-1.3,25.08,25.08,0,0,1-2.29-2.6c-1.32-3.27,3.8-.3,5,0A46.49,46.49,0,0,1,83,7.63c1.51.58,1.53.92,2.11,2.43,1,2.73,2.52,1.42,4.19,3.25,1,1.1,1.78,3.08,2.65,4.38,1.09,1.64,5.37,6.77,7.77,4.3,1.28-1.32-1.2-3.63-1.25-4.92s.87-2.21,1.82-3c1.59-1.25,2-1.77.08-3.29C98,9,95.47,8.65,92.71,7.77c-3-.95-3.79-2.68-5.31-5.1,1-.18,2-.26,3.08-.36A10,10,0,0,1,93.16,2.35ZM62.67,23.44c-.39,1-1.1.7-1.77,1.23-1,.8.79,2.23.05,2.75a4.65,4.65,0,0,1-2,0c-.82-.28-1.07-.86-2-.85-1.26,0-2.53-.23-2.25-1.83.13-.74.88-1.48.53-2.3a4.81,4.81,0,0,0-1.32-1.26c-.34-.22-.75-.19-1-.37-.65-.41-.4-2,.32-2.31,0,2.23,3.33.22,4,1.24s-.68,1.42.19,2.09a3.57,3.57,0,0,0,2.33.25c.78-.23,2.08-1.4,2.85-.55A2.59,2.59,0,0,1,62.67,23.44Zm10.59-3.92c.83.23.68.63,1.11,1.28s1.3.66,1.88,1.2c1.1,1-.64,2.35,0,3.6.56,1.09,6.84,2.73,2.74,4.06-1.2.39-1.91-.4-3-.71a5.79,5.79,0,0,0-3.51.39c-2,1.16,2.48,3.32-.28,4.15-.57.17-2.39.07-2.58-.63s.69-.61.87-1.19c.71-2.33-2.15-.9-2.94-1.1-1.13-.29-.78-2.31.11-2.76a7.33,7.33,0,0,1,2.25-.12c.88,0,1.76.12,2.64,0C73,26,70.43,25.18,69.1,25A3.43,3.43,0,0,1,67,24c-1-.76-1.49-.55-.76-1.93A8.67,8.67,0,0,1,69,19.42c.49-.24.87.26,1.34.31C71.31,19.84,72.3,19.24,73.26,19.52Z"/><path class="cls-2" d="M80.5,62.42c-.94-.33-4.28.88-2.91,1.86.93.67,3.13-.19,4.26.07s2.54-.15,3.65.3c.83.33,1.27,1.09,2.19,1.32,1.1.28,1.69-.18.66-1a11.32,11.32,0,0,0-2.58-1.16,14.47,14.47,0,0,0-1.86-1C83.06,62.51,81.16,63.27,80.5,62.42Z"/><path class="cls-2" d="M131.05,146.39c-1.88,1.3-3,3.07-5.25,4-2.42,1-4.68,2.36-7.16,3.34s-5.18,2.56-7.75,3.19c-2.15.52-4.57-.5-6.72-.44a28.88,28.88,0,0,0-6.64,1.09c-1.49.38-1.44.11-2.6-.34a4.87,4.87,0,0,0-1.8-.45c-.75-.08-1.49,0-2.2-.16,0,1,2.24,3.13,3.11,3.78-6.71.58-13.89-.27-20.57-1-2-.21-3.13.65-5,.89s-3.21-.71-4.95-.73c-2.11,0-3,.42-3.93,1.73A82.2,82.2,0,0,0,135,145.39a6.49,6.49,0,0,0-.06-.78A23.47,23.47,0,0,0,131.05,146.39Z"/><path class="cls-2" d="M2.55,83.07a5,5,0,0,0,.36-2.65c-.21-.93-.65-.85-1.08-1.6-1.19-2,.58-2.29.58-4,0-1-2.1-3.41-.71-4.44.62-.47,2.91.66,4,.19-.2-1.66-1.83-1.15-2.5-2.28-1-1.68.66-2,1.17-2.78,1.65-2.43-.69-3.66-1.28-5.65A82.07,82.07,0,0,0,0,82.25c0,.3,0,.59,0,.88A2,2,0,0,1,2.55,83.07Z"/><path class="cls-2" d="M5.25,59.73c.83-.26.51-2.28.66-2.83a19.31,19.31,0,0,1,2.43-4.82c1.35-2,.75-2.78.44-5.26,0-.42-.08-.87-.11-1.32A80.49,80.49,0,0,0,3.63,58C4.08,58.75,4.68,59.91,5.25,59.73Z"/><path class="cls-2" d="M3.41,73.25C2.13,77,6.17,77.55,6.25,80.67c0,1.15-.56,5.1,1.84,4.81,1-2.19-.59-2.5-.31-4.53C8,79.58,9,79.19,7.42,78c-.42-.31-1.18-.32-1.52-.66s-.38-1.08-.67-1.53A12.3,12.3,0,0,1,3.41,73.25Z"/><path class="cls-2" d="M3.41,86.25c-1,2.25-2.89,10.32.74,10.47.41,0,1.15-.72,1.56-.44s0,1,.2,1.14c.93.53,1.17.66,1.54-1,.3-1.28-.35-1.33-.54-2.21a8.11,8.11,0,0,1,0-2.31c-2.35-.57,2.39-1.07,2.21-2-.14-.72-3.65-.51-4.16-.36a6,6,0,0,1,.11-2C4.26,87.26,4,86.43,3.41,86.25Z"/><path class="cls-2" d="M15.25,93.58c-2.05.13-3.12-1.74-5.53-1,0,.5-.12,1-.12,1.49.54-.16,3.06-.75,2.65.7-.33,1.21-2.52-.32-2.15,1.47a12.12,12.12,0,0,1,2.23-.46c.9.11,1.25.59,2.08.78,1.12.24,1-.31,2.16.53a5.72,5.72,0,0,1,2.18,2.67c.65,2.15-.31,3,2.45,3.34,1.44.17,4.49,1.75,4.4-.62,1.37.46,3.48,4.55,5.32,4.14,2.3-.52-2.16-4.1-2.15-4.5a12.86,12.86,0,0,0,3.63-1.37c.76-.45,1.42-.34,1.16-1.8-1.09-.13-1.57.4-2.42.62a9.41,9.41,0,0,1-3.05.15,11.83,11.83,0,0,1-6.82-2.8c-1.1-.9-2-1.65-3.19-2.5-.75-.56-.72-.91-1.58-1.16A1.36,1.36,0,0,0,15.25,93.58Z"/><path class="cls-2" d="M3.75,98.92a39.74,39.74,0,0,0,4.5,0c.5-.06,1.08-.87,1.64-.3a2.66,2.66,0,0,1-.14,1.71c-.89,1-5.79.67-5.5-1.25"/><path class="cls-2" d="M26.24,110.43c-.14-2.58-1.13-2.23-2.33-3.88-.41,1.07-.88,3.21-2.32,3.37-2.14.24-2.48-3-3.76-3.83-1.83-1.26-6,0-6.42,1.66-1.7.67-1.81,1.47-2.5,2.9a24.32,24.32,0,0,1-1.7,2.94,9.1,9.1,0,0,1-.67.84,81.39,81.39,0,0,0,5.52,10.71,2.07,2.07,0,0,0,.6.11c1.81.15,2.77-1.85,4.22-1.66,1.05.13,1.82,1.9,2.69,2.62,2.38,2,6.41,3.45,7.35,6.37a12.41,12.41,0,0,0,2.37,4.07c.78,1.06.62,2.94,1.76,3.59a23.18,23.18,0,0,1,.65-5c.57-2,0-3.71.91-5.52s2.45-3.29,2.28-5.54a8.46,8.46,0,0,0-2.34-4.57C29.43,116.49,26.51,115.32,26.24,110.43Z"/><path class="cls-2" d="M39.41,87.08c.38,1,2.84,1.73,3.3,3.33s0,2.75,2.18,2.81c0-1,.52-2.43,0-3.34-.22-.42-.94-.51-1.22-1s-.07-1-.29-1.5C43,86.46,38.92,84.24,39.41,87.08Z"/></g></g></svg>